<svg width="18" height="19" viewBox="0 0 18 19" fill="none" xmlns="http://www.w3.org/2000/svg">
<path d="M9 0.569092C4.16797 0.569092 0.25 4.58862 0.25 9.54175C0.25 13.5066 2.75781 16.866 6.23438 18.0535C6.28314 18.0641 6.33291 18.0693 6.38281 18.0691C6.70703 18.0691 6.83203 17.8308 6.83203 17.6238C6.83203 17.4089 6.82422 16.8464 6.82031 16.0964C6.53088 16.1643 6.23478 16.1997 5.9375 16.2019C4.25391 16.2019 3.87109 14.8933 3.87109 14.8933C3.47266 13.8582 2.89844 13.5808 2.89844 13.5808C2.13672 13.0457 2.89453 13.03 2.95312 13.03H2.95703C3.83594 13.1082 4.29688 13.9597 4.29688 13.9597C4.73438 14.7253 5.32031 14.9402 5.84375 14.9402C6.18986 14.9333 6.53061 14.8534 6.84375 14.7058C6.92188 14.1277 7.14844 13.7332 7.39844 13.5066C5.45703 13.28 3.41406 12.5105 3.41406 9.073C3.41406 8.09253 3.75391 7.29175 4.3125 6.66675C4.22266 6.44019 3.92188 5.52612 4.39844 4.29175C4.46236 4.27645 4.52806 4.26988 4.59375 4.27222C4.91016 4.27222 5.625 4.39331 6.80469 5.21362C8.2381 4.81257 9.75409 4.81257 11.1875 5.21362C12.3672 4.39331 13.082 4.27222 13.3984 4.27222C13.4641 4.26988 13.5298 4.27645 13.5938 4.29175C14.0703 5.52612 13.7695 6.44019 13.6797 6.66675C14.2383 7.29565 14.5781 8.09643 14.5781 9.073C14.5781 12.5183 12.5312 13.2761 10.582 13.4988C10.8945 13.7761 11.1758 14.323 11.1758 15.1589C11.1758 16.3582 11.1641 17.3269 11.1641 17.6199C11.1641 17.8308 11.2852 18.0691 11.6094 18.0691C11.6619 18.0693 11.7142 18.0641 11.7656 18.0535C15.2461 16.866 17.75 13.5027 17.75 9.54175C17.75 4.58862 13.832 0.569092 9 0.569092Z" fill="#202024"/>
</svg>
